<svg width="25" height="30" viewBox="0 0 25 30" fill="none" xmlns="http://www.w3.org/2000/svg">
<path fill-rule="evenodd" clip-rule="evenodd" d="M14.2835 5.97667C13.9615 5.97667 13.7002 5.71534 13.7002 5.39334V3.43334C13.7002 2.79051 13.1764 2.26667 12.5335 2.26667C11.8907 2.26667 11.3669 2.79051 11.3669 3.43334V5.39334C11.3669 5.71534 11.1055 5.97667 10.7835 5.97667C10.4615 5.97667 10.2002 5.71651 10.2002 5.39334V3.43334C10.2002 2.14651 11.2467 1.10001 12.5335 1.10001C13.8204 1.10001 14.8669 2.14651 14.8669 3.43334V5.39334C14.8669 5.71651 14.6055 5.97667 14.2835 5.97667Z" fill="black" stroke="black" stroke-width="0.4"/>
<path fill-rule="evenodd" clip-rule="evenodd" d="M12.5335 29.1C10.2819 29.1 8.4502 27.2683 8.4502 25.0167C8.4502 24.6947 8.71153 24.4333 9.03353 24.4333C9.35553 24.4333 9.61686 24.6947 9.61686 25.0167C9.61686 26.6243 10.9259 27.9333 12.5335 27.9333C14.1412 27.9333 15.4502 26.6243 15.4502 25.0167C15.4502 24.6947 15.7115 24.4333 16.0335 24.4333C16.3555 24.4333 16.6169 24.6947 16.6169 25.0167C16.6169 27.2683 14.7852 29.1 12.5335 29.1Z" fill="black" stroke="black" stroke-width="0.4"/>
<path fill-rule="evenodd" clip-rule="evenodd" d="M22.45 25.6H2.6167C1.65187 25.6 0.866699 24.8148 0.866699 23.85C0.866699 23.3378 1.08953 22.8537 1.4792 22.52C3.31787 20.966 4.3667 18.705 4.3667 16.311V12.7667C4.3667 8.26334 8.03003 4.60001 12.5334 4.60001C17.0367 4.60001 20.7 8.26334 20.7 12.7667V16.311C20.7 18.7062 21.7489 20.966 23.5782 22.5118C23.9772 22.8537 24.2 23.3378 24.2 23.85C24.2 24.8148 23.416 25.6 22.45 25.6ZM12.5332 5.76666C8.6727 5.76666 5.5332 8.90616 5.5332 12.7667V16.311C5.5332 19.0503 4.33387 21.6345 2.24204 23.4032C2.10787 23.5175 2.0332 23.6797 2.0332 23.85C2.0332 24.172 2.29454 24.4333 2.61654 24.4333H22.4499C22.7719 24.4333 23.0332 24.172 23.0332 23.85C23.0332 23.6797 22.9585 23.5175 22.829 23.4067C20.7337 21.6345 19.5332 19.0492 19.5332 16.311V12.7667C19.5332 8.90616 16.3937 5.76666 12.5332 5.76666V5.76666Z" fill="black"/>
<path d="M1.4792 22.52L1.3501 22.3673L1.34912 22.3681L1.4792 22.52ZM23.5782 22.5118L23.7083 22.36L23.7073 22.3591L23.5782 22.5118ZM12.5332 5.76666H12.7332V5.56666H12.5332V5.76666ZM2.24204 23.4032L2.1129 23.2504L2.11232 23.2509L2.24204 23.4032ZM22.829 23.4067L22.9591 23.2547L22.9582 23.254L22.829 23.4067ZM12.5332 5.76666H12.3332V5.96666H12.5332V5.76666ZM22.45 25.4H2.6167V25.8H22.45V25.4ZM2.6167 25.4C1.76232 25.4 1.0667 24.7044 1.0667 23.85H0.666699C0.666699 24.9253 1.54141 25.8 2.6167 25.8V25.4ZM1.0667 23.85C1.0667 23.3963 1.26395 22.9676 1.60928 22.6719L1.34912 22.3681C0.915115 22.7397 0.666699 23.2794 0.666699 23.85H1.0667ZM1.6083 22.6728C3.49182 21.0808 4.5667 18.764 4.5667 16.311H4.1667C4.1667 18.646 3.14391 20.8512 1.3501 22.3673L1.6083 22.6728ZM4.5667 16.311V12.7667H4.1667V16.311H4.5667ZM4.5667 12.7667C4.5667 8.3738 8.14049 4.80001 12.5334 4.80001V4.40001C7.91958 4.40001 4.1667 8.15288 4.1667 12.7667H4.5667ZM12.5334 4.80001C16.9262 4.80001 20.5 8.3738 20.5 12.7667H20.9C20.9 8.15288 17.1472 4.40001 12.5334 4.40001V4.80001ZM20.5 12.7667V16.311H20.9V12.7667H20.5ZM20.5 16.311C20.5 18.765 21.5748 21.0808 23.4491 22.6646L23.7073 22.3591C21.9229 20.8513 20.9 18.6473 20.9 16.311H20.5ZM23.4481 22.6637C23.8034 22.9681 24 23.3971 24 23.85H24.4C24.4 23.2786 24.151 22.7392 23.7083 22.36L23.4481 22.6637ZM24 23.85C24 24.7045 23.3055 25.4 22.45 25.4V25.8C23.5266 25.8 24.4 24.9252 24.4 23.85H24ZM12.5332 5.56666C8.56225 5.56666 5.3332 8.79571 5.3332 12.7667H5.7332C5.7332 9.01662 8.78316 5.96666 12.5332 5.96666V5.56666ZM5.3332 12.7667V16.311H5.7332V12.7667H5.3332ZM5.3332 16.311C5.3332 18.9915 4.1598 21.5198 2.11291 23.2504L2.37117 23.5559C4.50794 21.7492 5.7332 19.1092 5.7332 16.311H5.3332ZM2.11232 23.2509C1.93427 23.4027 1.8332 23.6201 1.8332 23.85H2.2332C2.2332 23.7392 2.28147 23.6323 2.37176 23.5554L2.11232 23.2509ZM1.8332 23.85C1.8332 24.2824 2.18408 24.6333 2.61654 24.6333V24.2333C2.40499 24.2333 2.2332 24.0615 2.2332 23.85H1.8332ZM2.61654 24.6333H22.4499V24.2333H2.61654V24.6333ZM22.4499 24.6333C22.8823 24.6333 23.2332 24.2824 23.2332 23.85H22.8332C22.8332 24.0615 22.6614 24.2333 22.4499 24.2333V24.6333ZM23.2332 23.85C23.2332 23.6212 23.133 23.4035 22.9591 23.2547L22.699 23.5586C22.7841 23.6315 22.8332 23.7381 22.8332 23.85H23.2332ZM22.9582 23.254C20.9077 21.5197 19.7332 18.9902 19.7332 16.311H19.3332C19.3332 19.1081 20.5597 21.7493 22.6999 23.5594L22.9582 23.254ZM19.7332 16.311V12.7667H19.3332V16.311H19.7332ZM19.7332 12.7667C19.7332 8.79571 16.5042 5.56666 12.5332 5.56666V5.96666C16.2832 5.96666 19.3332 9.01662 19.3332 12.7667H19.7332ZM12.7332 5.76666V5.76666H12.3332V5.76666H12.7332Z" fill="black"/>
</svg>
